<!-- by TradingView --><svg width="56" height="56" xmlns="http://www.w3.org/2000/svg"><path fill="#18274D" d="M0 0h56v56H0z"/><path d="M6.437 25c-1.244 0-1.278.04-1.218.479h.312c.389 0 .469.062.469.46v4.82c0 .683-.178.755-1 .816V32h3.266c2.469 0 3.488-1.436 3.488-3.54 0-2.185-1.081-3.46-3.568-3.46h-1.75zM7 30.687V25.55h1.077c1.659 0 2.522 1.144 2.522 3.105 0 2.199-.941 2.76-2.418 2.76C7 31.415 7 31.313 7 30.69v-.003zM16 25c-.407 0-.519.183-.804.97l-1.71 4.789c-.233.652-.31.713-.976.816a1.172 1.172 0 000 .425h2.47c.216 0 .277-.19.216-.486h-.742c-.475 0-.475-.153-.277-.756l.354-1.107h2.228l.544 1.535c.095.266 0 .358-.941.388a1.159 1.159 0 000 .426h2.798c.224 0 .277-.19.224-.484h-.197c-.44 0-.535-.091-.63-.357l-1.995-5.38c-.14-.358-.198-.553-.225-.779h-.338zm-.38 1.428L16.56 29h-1.839l.898-2.572zM20.385 25c-.362 0-.414.173-.362.438h.414c.398 0 .562.062.562.43v5.04c0 .608-.281.653-1 .653V32h2.748c.26 0 .284-.204.225-.5h-.465c-.363 0-.508-.071-.508-.428v-5.01c0-.43.249-.623 1-.685V25h-2.614zm9.92.012l-2.021 5.052-2.142-5.052H24.38c-.36 0-.413.222-.36.458.855.03.927.142.9.47l-.38 4.939c-.025.43-.105.633-1.054.695a1.233 1.233 0 000 .426h2.833c.243 0 .277-.193.215-.488h-.465c-.914 0-.914-.102-.89-.502l.304-4.728L27.843 32c.197 0 .267-.065.424-.433l2.1-5.288.362 4.593c.043.498-.077.611-.802.662l-.467.029a.952.952 0 000 .437h3.048c.242 0 .267-.204.242-.5-.665-.101-.803-.13-.83-.458l-.389-5.124c-.025-.295.027-.459.828-.521a.735.735 0 000-.397l-2.053.012zm4.09-.012c-.363 0-.432.273-.38.538h.431c.364 0 .553.062.553.43v4.762c0 .663-.162.796-1 .857V32h4.378c.111-.634.268-1.252.45-1.864.089-.305-.025-.43-.259-.43l-.028.001-.243.633c-.363.92-.45.97-1.09.97h-.814c-.244 0-.392-.091-.392-.429v-4.6c0-.663 0-.804.998-.804V25h-2.604zm6.003 0c-.38 0-.415.197-.38.462h.412c.388 0 .569.062.569.43v4.867c0 .684-.086.755-1 .817V32h4.679c.11-.634.277-1.282.45-1.865.082-.295-.029-.43-.26-.43l-.027.002-.243.632c-.363.92-.45.97-1.09.97h-.742c-.588 0-.767-.152-.767-.52V29h1.24c.225 0 .338.098.45.894a.37.37 0 00.31.002v-2.01c.018-.316-.084-.385-.257-.385h-.103l-.059.52c-.027.266-.078.368-.337.368H42v-2.788h1.487c.475 0 .656.164.802.786l.114.608c.022.004.04.004.06.004.23 0 .317-.32.277-.612-.06-.437-.111-.928-.137-1.387h-4.204zm5.978 0c-.354.03-.414.248-.354.513h.415c.354 0 .562.062.562.463v4.816c0 .623-.248.724-1 .786V32h2.732c.25 0 .294-.185.268-.48h-.458c-.449 0-.542-.102-.542-.397v-1.472h.594c.527 0 .544.005.76.464.225.47.322.881.607 1.176.639.655 1.166.859 1.969.859.917 0 1.133-.266 1.056-.622-.752 0-1.13-.091-2.27-1.176-.326-.317-.975-1.118-.975-1.118.717-.357 1.167-1.052 1.167-1.908 0-1.398-.7-2.326-2.36-2.326h-2.17zm1.623.591h.32c.976 0 1.451.43 1.451 1.808 0 1.377-.486 1.596-1.34 1.596H48v-3.404z" fill="#fff"/></svg>